<svg xmlns="http://www.w3.org/2000/svg" viewBox="0 0 446.21250000000003 415" width="446.21250000000003" height="415" style="--bg:#ffffff;--fg:#1f2328;--line:#d1d9e0;--accent:#0969da;--muted:#59636e;background:var(--bg)">
<style>
  @import url('https://fonts.googleapis.com/css2?family=Inter:wght@400;500;600;700&amp;display=swap');
  text { font-family: 'Inter', system-ui, sans-serif; }
  svg {
    /* Derived from --bg and --fg (overridable via --line, --accent, etc.) */
    --_text:          var(--fg);
    --_text-sec:      var(--muted, color-mix(in srgb, var(--fg) 60%, var(--bg)));
    --_text-muted:    var(--muted, color-mix(in srgb, var(--fg) 40%, var(--bg)));
    --_text-faint:    color-mix(in srgb, var(--fg) 25%, var(--bg));
    --_line:          var(--line, color-mix(in srgb, var(--fg) 30%, var(--bg)));
    --_arrow:         var(--accent, color-mix(in srgb, var(--fg) 50%, var(--bg)));
    --_node-fill:     var(--surface, color-mix(in srgb, var(--fg) 3%, var(--bg)));
    --_node-stroke:   var(--border, color-mix(in srgb, var(--fg) 20%, var(--bg)));
    --_group-fill:    var(--bg);
    --_group-hdr:     color-mix(in srgb, var(--fg) 5%, var(--bg));
    --_inner-stroke:  color-mix(in srgb, var(--fg) 12%, var(--bg));
    --_key-badge:     color-mix(in srgb, var(--fg) 10%, var(--bg));
  }
</style>
<defs>
  <marker id="arrowhead" markerWidth="8" markerHeight="4.8" refX="8" refY="2.4" orient="auto">
    <polygon points="0 0, 8 2.4, 0 4.8" fill="var(--_arrow)" />
  </marker>
  <marker id="arrowhead-start" markerWidth="8" markerHeight="4.8" refX="0" refY="2.4" orient="auto-start-reverse">
    <polygon points="8 0, 0 2.4, 8 4.8" fill="var(--_arrow)" />
  </marker>
</defs>
<polyline points="207.55,68 207.55,88 105.20000000000002,88 105.20000000000002,184" fill="none" stroke="var(--_line)" stroke-width="0.75" marker-end="url(#arrowhead)" />
<polyline points="207.55,68 207.55,88 301.6875,88 301.6875,108" fill="none" stroke="var(--_line)" stroke-width="0.75" marker-end="url(#arrowhead)" />
<polyline points="301.6875,144 301.6875,184" fill="none" stroke="var(--_line)" stroke-width="0.75" marker-end="url(#arrowhead)" />
<polyline points="105.20000000000002,220 105.20000000000002,283.5 34.85000000000001,283.5" fill="none" stroke="var(--_line)" stroke-width="0.75" marker-end="url(#arrowhead)" />
<polyline points="301.6875,220 301.6875,240 209.33750000000003,240 209.33750000000003,283.5 195.55,283.5" fill="none" stroke="var(--_line)" stroke-width="0.75" marker-end="url(#arrowhead)" />
<polyline points="301.6875,220 301.6875,240 311.6875,240 311.6875,260" fill="none" stroke="var(--_line)" stroke-width="0.75" marker-end="url(#arrowhead)" />
<polyline points="115.20000000000002,307 115.20000000000002,365 102.175,365" fill="none" stroke="var(--_line)" stroke-width="0.75" marker-end="url(#arrowhead)" />
<polyline points="311.6875,307 311.6875,365 312.925,365" fill="none" stroke="var(--_line)" stroke-width="0.75" marker-end="url(#arrowhead)" />
<rect x="112.9" y="32" width="189.3" height="36" rx="0" ry="0" fill="var(--_node-fill)" stroke="var(--_node-stroke)" stroke-width="0.75" />
<rect x="32.000000000000014" y="184" width="146.4" height="36" rx="0" ry="0" fill="var(--_node-fill)" stroke="var(--_node-stroke)" stroke-width="0.75" />
<rect x="189.1625" y="108" width="225.05" height="36" rx="0" ry="0" fill="var(--_node-fill)" stroke="var(--_node-stroke)" stroke-width="0.75" />
<rect x="210.6125" y="184" width="182.15" height="36" rx="0" ry="0" fill="var(--_node-fill)" stroke="var(--_node-stroke)" stroke-width="0.75" />
<rect x="34.85000000000001" y="267" width="160.70000000000002" height="33" fill="var(--_node-fill)" stroke="none" />
<line x1="34.85000000000001" y1="267" x2="34.85000000000001" y2="300" stroke="var(--_node-stroke)" stroke-width="0.75" />
<line x1="195.55" y1="267" x2="195.55" y2="300" stroke="var(--_node-stroke)" stroke-width="0.75" />
<ellipse cx="115.20000000000002" cy="300" rx="80.35000000000001" ry="7" fill="var(--_node-fill)" stroke="var(--_node-stroke)" stroke-width="0.75" />
<ellipse cx="115.20000000000002" cy="267" rx="80.35000000000001" ry="7" fill="var(--_node-fill)" stroke="var(--_node-stroke)" stroke-width="0.75" />
<rect x="231.33749999999998" y="267" width="160.70000000000002" height="33" fill="var(--_node-fill)" stroke="none" />
<line x1="231.33749999999998" y1="267" x2="231.33749999999998" y2="300" stroke="var(--_node-stroke)" stroke-width="0.75" />
<line x1="392.0375" y1="267" x2="392.0375" y2="300" stroke="var(--_node-stroke)" stroke-width="0.75" />
<ellipse cx="311.6875" cy="300" rx="80.35000000000001" ry="7" fill="var(--_node-fill)" stroke="var(--_node-stroke)" stroke-width="0.75" />
<ellipse cx="311.6875" cy="267" rx="80.35000000000001" ry="7" fill="var(--_node-fill)" stroke="var(--_node-stroke)" stroke-width="0.75" />
<rect x="102.175" y="347" width="210.75000000000003" height="36" rx="0" ry="0" fill="var(--_node-fill)" stroke="var(--_node-stroke)" stroke-width="0.75" />
<text x="207.55" y="50" text-anchor="middle" dy="0.35em" font-size="13" font-weight="500" fill="var(--_text)">&quot;Watchlists / Symbols&quot;</text>
<text x="105.20000000000002" y="202" text-anchor="middle" dy="0.35em" font-size="13" font-weight="500" fill="var(--_text)">&quot;ingest candles&quot;</text>
<text x="301.6875" y="126" text-anchor="middle" dy="0.35em" font-size="13" font-weight="500" fill="var(--_text)">&quot;Discover option contracts&quot;</text>
<text x="301.6875" y="202" text-anchor="middle" dy="0.35em" font-size="13" font-weight="500" fill="var(--_text)">&quot;ingest options-bars&quot;</text>
<text x="115.20000000000002" y="283.5" text-anchor="middle" dy="0.35em" font-size="13" font-weight="500" fill="var(--_text)">&quot;DuckDB warehouse&quot;</text>
<text x="311.6875" y="283.5" text-anchor="middle" dy="0.35em" font-size="13" font-weight="500" fill="var(--_text)">&quot;option_bars_meta&quot;</text>
<text x="207.55" y="365" text-anchor="middle" dy="0.35em" font-size="13" font-weight="500" fill="var(--_text)">&quot;Scans + report commands&quot;</text>
</svg>
